<?xml version="1.0" encoding="utf-8"?>
<!-- Generator: Adobe Illustrator 18.1.1, SVG Export Plug-In . SVG Version: 6.00 Build 0)  -->
<svg version="1.1" id="Layer_1" xmlns="http://www.w3.org/2000/svg" xmlns:xlink="http://www.w3.org/1999/xlink" x="0px" y="0px"
     viewBox="0 0 34.7 61.1" enable-background="new 0 0 34.7 61.1" xml:space="preserve">
<path fill="#222222" d="M34.3,51c0,4.1,0.1,7.4,0.4,10.1C32,61,27.5,60.9,21,60.9c-9.4,0-16.4,0.1-21,0.2v-1.2c1.3-0.1,2.2-0.2,2.8-0.5
    c0.6-0.3,1-0.7,1.2-1.4c0.2-0.7,0.3-1.8,0.3-3.3V25c0-1.5-0.1-2.6-0.3-3.3c-0.2-0.7-0.6-1.2-1.2-1.4C2.2,20,1.3,19.9,0,19.8v-1.2
    c4.6,0.1,11.6,0.2,21,0.2c5.9,0,10.1-0.1,12.5-0.2c-0.3,3.8-0.4,7.1-0.4,10.1c0,1.9,0.1,3.3,0.2,4.3h-1.4c-0.7-4.6-2-8-4-10
    s-4.3-3-7-3h-0.8c-1.1,0-1.9,0.1-2.4,0.3c-0.5,0.2-0.8,0.5-1,1c-0.2,0.5-0.3,1.3-0.3,2.5v15.4h0.6c1.4,0,2.7-0.4,3.9-1.2
    c1.1-0.8,2.1-1.8,2.8-3c0.7-1.2,1.2-2.4,1.5-3.7h1.4c-0.2,2.3-0.2,4.3-0.2,5.8l0,2.7c0,1.7,0.1,4.6,0.4,8.5h-1.4
    c-0.3-1.5-0.8-2.9-1.5-4.1c-0.8-1.2-1.7-2.1-2.9-2.8c-1.2-0.7-2.5-1-4-1h-0.6v15.6c0,1.2,0.1,2,0.3,2.5c0.2,0.5,0.5,0.8,1,1
    c0.5,0.2,1.3,0.3,2.4,0.3h2c1.4,0,2.9-0.5,4.4-1.4c1.5-0.9,2.8-2.4,4-4.6c1.2-2.1,2.1-4.9,2.7-8.3h1.4C34.4,46.9,34.3,48.8,34.3,51z
    "/>
<g>
    <path fill="#222222" d="M16.8,0.5c-0.2,0.1-0.3,0.2-0.4,0.4c-0.1,0.2-0.1,0.6-0.1,1v9.4c0,0.5,0,0.8,0.1,1c0.1,0.2,0.2,0.4,0.4,0.4
        C17,13,17.3,13,17.7,13v0.4c-0.8,0-1.9-0.1-3.4-0.1c-1.5,0-2.6,0-3.4,0.1V13c0.5,0,0.8-0.1,1-0.1c0.2-0.1,0.3-0.2,0.4-0.4
        c0.1-0.2,0.1-0.6,0.1-1V1.7L7.9,13.4H7.6L2.3,1.2v8.5c0,0.9,0,1.6,0.1,2c0.1,0.4,0.2,0.7,0.5,0.9S3.6,13,4.2,13v0.4
        c-0.5,0-1.2-0.1-2.1-0.1c-0.7,0-1.2,0-1.6,0.1V13c0.4-0.1,0.7-0.2,0.9-0.4c0.2-0.2,0.3-0.5,0.4-0.8s0.1-0.9,0.1-1.7V2
        c0-0.5,0-0.8-0.1-1C1.7,0.8,1.6,0.6,1.4,0.5C1.2,0.4,0.9,0.4,0.5,0.4V0c0.4,0,0.9,0.1,1.6,0.1C3.6,0.1,4.9,0,6,0l3.6,8.1l3.1-8h1.6
        c1.5,0,2.6,0,3.4-0.1v0.4C17.3,0.4,17,0.4,16.8,0.5z"/>
    <path fill="#222222" d="M20.3,11.1c0.3,0.7,0.8,1.2,1.4,1.6s1.3,0.5,2.1,0.5c0.5,0,1-0.1,1.4-0.4c0.4-0.2,0.6-0.6,0.6-1.1c0-0.3-0.1-0.6-0.2-0.8
        c-0.2-0.3-0.4-0.5-0.7-0.8c-0.3-0.3-0.8-0.6-1.4-0.9c-0.9-0.5-1.6-1-2.1-1.4c-0.6-0.4-1-0.9-1.4-1.4s-0.5-1.1-0.5-1.6
        c0-0.7,0.2-1.3,0.6-1.7c0.4-0.5,1-0.8,1.7-1.1c0.7-0.2,1.6-0.4,2.5-0.4c1.1,0,2,0.2,2.9,0.7c0.2,0.1,0.3,0.2,0.4,0.2
        c0.1,0,0.2,0.1,0.2,0.1c0.1,0,0.2-0.1,0.3-0.2C28,2.3,28,2,28.1,1.8h0.4C28.5,2.6,28.4,4,28.4,6H28c-0.1-0.9-0.3-1.6-0.7-2.2
        s-0.8-1-1.3-1.3c-0.5-0.3-1.1-0.4-1.7-0.4c-0.6,0-1.1,0.1-1.4,0.3c-0.4,0.2-0.5,0.5-0.5,0.9c0,0.3,0.1,0.6,0.4,0.9
        c0.2,0.3,0.5,0.6,0.9,0.8s1,0.7,1.8,1.2c0.7,0.4,1.4,0.8,1.8,1.2c0.5,0.4,0.9,0.8,1.2,1.3S29,9.8,29,10.5c0,0.7-0.2,1.3-0.7,1.8
        c-0.4,0.5-1,0.8-1.8,1.1s-1.7,0.4-2.7,0.4c-0.4,0-0.8,0-1.2-0.1s-0.7-0.2-0.9-0.2c-0.2-0.1-0.6-0.2-1.1-0.4
        c-0.3-0.1-0.6-0.2-0.7-0.2c-0.1,0-0.2,0.1-0.3,0.2c-0.1,0.1-0.1,0.3-0.2,0.6h-0.4c0-0.8,0.1-2.4,0.1-4.9h0.4
        C19.7,9.6,19.9,10.4,20.3,11.1z"/>
    <path fill="#222222" d="M33.8,10.8c0.3,0.3,0.5,0.7,0.5,1.2c0,0.5-0.2,0.9-0.5,1.2c-0.3,0.3-0.8,0.4-1.4,0.4c-0.6,0-1.1-0.1-1.4-0.4
        s-0.5-0.7-0.5-1.2c0-0.5,0.2-0.9,0.5-1.2c0.3-0.3,0.8-0.4,1.4-0.4C33,10.4,33.5,10.6,33.8,10.8z"/>
</g>
</svg>
