<?xml version="1.0" encoding="utf-8"?>
<!-- Generator: Adobe Illustrator 18.1.1, SVG Export Plug-In . SVG Version: 6.00 Build 0)  -->
<svg version="1.1" id="Layer_1" xmlns="http://www.w3.org/2000/svg" xmlns:xlink="http://www.w3.org/1999/xlink" x="0px" y="0px"
     viewBox="0 0 468.7 61.9" enable-background="new 0 0 468.7 61.9" xml:space="preserve">
<g>
    <path fill="#222222" d="M34.3,51c0,4.1,0.1,7.4,0.4,10.1C32,61,27.5,60.9,21,60.9c-9.4,0-16.4,0.1-21,0.2v-1.2c1.3-0.1,2.2-0.2,2.8-0.5
        c0.6-0.3,1-0.7,1.2-1.4c0.2-0.7,0.3-1.8,0.3-3.3V25c0-1.5-0.1-2.6-0.3-3.3c-0.2-0.7-0.6-1.2-1.2-1.4C2.2,20,1.3,19.9,0,19.8v-1.2
        c4.6,0.1,11.6,0.2,21,0.2c5.9,0,10.1-0.1,12.5-0.2c-0.3,3.8-0.4,7.1-0.4,10.1c0,1.9,0.1,3.3,0.2,4.3h-1.4c-0.7-4.6-2-8-4-10
        s-4.3-3-7-3h-0.8c-1.1,0-1.9,0.1-2.4,0.3c-0.5,0.2-0.8,0.5-1,1c-0.2,0.5-0.3,1.3-0.3,2.5v15.4h0.6c1.4,0,2.7-0.4,3.9-1.2
        c1.1-0.8,2.1-1.8,2.8-3c0.7-1.2,1.2-2.4,1.5-3.7h1.4c-0.2,2.3-0.2,4.3-0.2,5.8l0,2.7c0,1.7,0.1,4.6,0.4,8.5h-1.4
        c-0.3-1.5-0.8-2.9-1.5-4.1c-0.8-1.2-1.7-2.1-2.9-2.8c-1.2-0.7-2.5-1-4-1h-0.6v15.6c0,1.2,0.1,2,0.3,2.5c0.2,0.5,0.5,0.8,1,1
        c0.5,0.2,1.3,0.3,2.4,0.3h2c1.4,0,2.9-0.5,4.4-1.4c1.5-0.9,2.8-2.4,4-4.6c1.2-2.1,2.1-4.9,2.7-8.3h1.4C34.4,46.9,34.3,48.8,34.3,51
        z"/>
    <path fill="#222222" d="M43.7,53.8c1.1,2.2,2.5,3.8,4.3,5c1.8,1.1,4,1.7,6.5,1.7c1.7,0,3.2-0.4,4.4-1.1c1.2-0.8,1.8-1.9,1.8-3.5
        c0-1-0.2-1.9-0.7-2.7s-1.3-1.6-2.3-2.4s-2.5-1.8-4.4-2.9c-2.7-1.6-4.9-3.1-6.8-4.5c-1.8-1.4-3.3-2.8-4.4-4.5
        c-1.1-1.6-1.7-3.3-1.7-5.2c0-2.2,0.7-4,2-5.5c1.3-1.5,3.1-2.6,5.5-3.4c2.3-0.8,5-1.1,8-1.1c3.4,0,6.4,0.7,9.1,2.2
        c0.6,0.4,1.1,0.6,1.3,0.7c0.2,0.1,0.5,0.2,0.7,0.2c0.4,0,0.7-0.2,0.8-0.6c0.2-0.4,0.4-1.1,0.5-2h1.4c-0.2,2.6-0.3,7.1-0.3,13.4
        h-1.4c-0.4-2.7-1.1-5-2.2-6.9c-1.1-1.9-2.4-3.2-4-4.2c-1.6-0.9-3.4-1.4-5.4-1.4c-1.9,0-3.4,0.4-4.5,1.1c-1.1,0.7-1.7,1.7-1.7,2.8
        c0,1,0.4,2,1.1,3s1.7,1.8,2.9,2.7c1.2,0.8,3.1,2.1,5.7,3.8c2.4,1.4,4.3,2.7,5.8,3.8c1.5,1.2,2.8,2.5,3.9,4.1c1,1.6,1.6,3.4,1.6,5.4
        c0,2.2-0.7,4.1-2.1,5.6s-3.3,2.7-5.8,3.4c-2.5,0.8-5.4,1.2-8.6,1.2c-1.3,0-2.6-0.1-3.8-0.4c-1.2-0.3-2.1-0.5-2.8-0.7
        c-0.7-0.2-1.8-0.7-3.3-1.3c-1.1-0.4-1.8-0.7-2.1-0.7s-0.6,0.2-0.8,0.6c-0.2,0.4-0.4,1.1-0.5,2h-1.4c0.2-2.4,0.2-7.6,0.2-15.6h1.4
        C42,49,42.7,51.6,43.7,53.8z"/>
    <path fill="#222222" d="M75.5,33.5c0-2.6-0.1-5.6-0.4-8.9c3.6,0.1,9.6,0.2,18.1,0.2c8.7,0,15-0.1,18.7-0.2c-0.3,3.2-0.4,6.2-0.4,8.9
        c0,2.4,0.1,4.2,0.2,5.5h-1.4c-0.8-3.2-1.6-5.7-2.6-7.6c-1-1.9-2.1-3.3-3.3-4.1c-1.3-0.8-2.8-1.3-4.5-1.3h-0.6v28.1
        c0,1.7,0.2,2.9,0.5,3.6c0.3,0.8,0.9,1.3,1.7,1.6s2.1,0.5,3.9,0.5v1.2c-2.2-0.1-6.2-0.2-12.1-0.2c-5.8,0-9.7,0.1-11.6,0.2v-1.2
        c1.8-0.1,3.1-0.2,3.9-0.5s1.4-0.8,1.7-1.6c0.3-0.8,0.5-2,0.5-3.6V26h-0.5c-1.8,0-3.3,0.4-4.5,1.3c-1.3,0.8-2.4,2.2-3.3,4.1
        c-1,1.9-1.8,4.4-2.6,7.6h-1.4C75.5,37.7,75.5,35.9,75.5,33.5z"/>
    <path fill="#222222" d="M147.6,52.8c0,2.2,0.1,5,0.4,8.3c-2.6-0.1-7-0.2-13.2-0.2c-8.8,0-15.4,0.1-19.8,0.2v-1.2c1.3-0.1,2.2-0.2,2.8-0.5
        c0.6-0.3,1-0.7,1.2-1.4c0.2-0.7,0.3-1.8,0.3-3.3V31c0-1.5-0.1-2.6-0.3-3.3c-0.2-0.7-0.6-1.2-1.2-1.4c-0.6-0.3-1.5-0.4-2.8-0.5v-1.2
        c4.4,0.1,11,0.2,19.8,0.2c5.6,0,9.6-0.1,12-0.2c-0.3,3-0.4,5.6-0.4,7.7c0,1.6,0.1,2.9,0.2,3.7h-1.4c-0.8-3.6-2.1-6.1-3.8-7.7
        c-1.7-1.6-3.9-2.3-6.6-2.3H134c-0.8,0-1.4,0.1-1.8,0.2c-0.4,0.2-0.8,0.5-1,0.9c-0.2,0.4-0.3,1.1-0.3,2v13h1.4c1.3,0,2.5-0.3,3.4-1
        c0.9-0.7,1.7-1.6,2.2-2.6c0.5-1,0.9-2.1,1.1-3.1h1.4c-0.1,1.5-0.2,3-0.2,4.6l0,2.7c0,2,0.1,4.4,0.4,7.3h-1.4
        c-0.3-1.9-1-3.5-2.2-4.8c-1.2-1.3-2.8-1.9-4.7-1.9h-1.4v13.2c0,0.9,0.1,1.6,0.3,2c0.2,0.5,0.5,0.8,1,0.9c0.4,0.2,1,0.2,1.8,0.2h1.4
        c2.8,0,5.1-0.9,7-2.6c1.9-1.7,3.2-4.6,4-8.6h1.4C147.7,49.6,147.6,51,147.6,52.8z"/>
    <path fill="#222222" d="M169.5,26.3c-0.6,0.3-1,0.7-1.2,1.4s-0.3,1.8-0.3,3.3v25c0,1.1,0.1,1.9,0.3,2.4c0.2,0.5,0.5,0.9,1,1.1s1,0.3,1.8,0.3h1.4
        c1.6,0,3.2-0.4,4.6-1.3c1.5-0.9,2.7-2.3,3.9-4.2c1.1-1.9,2-4.4,2.5-7.5h1.4c-0.1,1.3-0.2,2.9-0.2,4.9c0,2.5,0.1,5.7,0.4,9.5
        c-2.6-0.1-7-0.2-13.2-0.2c-8.8,0-15.4,0.1-19.8,0.2v-1.2c1.3-0.1,2.2-0.2,2.8-0.5c0.6-0.3,1-0.7,1.2-1.4c0.2-0.7,0.3-1.8,0.3-3.3
        V31c0-1.5-0.1-2.6-0.3-3.3c-0.2-0.7-0.6-1.2-1.2-1.4c-0.6-0.3-1.5-0.4-2.8-0.5v-1.2c2.3,0.1,5.8,0.2,10.7,0.2
        c4.1,0,7.2-0.1,9.4-0.2v1.2C171,25.9,170.1,26,169.5,26.3z"/>
    <path fill="#222222" d="M205.5,26.3c-0.6,0.3-1,0.7-1.2,1.4S204,29.5,204,31v25c0,1.1,0.1,1.9,0.3,2.4c0.2,0.5,0.5,0.9,1,1.1s1,0.3,1.8,0.3h1.4
        c1.6,0,3.2-0.4,4.6-1.3c1.5-0.9,2.7-2.3,3.9-4.2c1.1-1.9,2-4.4,2.5-7.5h1.4c-0.1,1.3-0.2,2.9-0.2,4.9c0,2.5,0.1,5.7,0.4,9.5
        c-2.6-0.1-7-0.2-13.2-0.2c-8.8,0-15.4,0.1-19.8,0.2v-1.2c1.3-0.1,2.2-0.2,2.8-0.5c0.6-0.3,1-0.7,1.2-1.4c0.2-0.7,0.3-1.8,0.3-3.3
        V31c0-1.5-0.1-2.6-0.3-3.3c-0.2-0.7-0.6-1.2-1.2-1.4c-0.6-0.3-1.5-0.4-2.8-0.5v-1.2c2.3,0.1,5.8,0.2,10.7,0.2
        c4.1,0,7.2-0.1,9.4-0.2v1.2C207,25.9,206.1,26,205.5,26.3z"/>
    <path fill="#222222" d="M256.6,52.8c0,2.2,0.1,5,0.4,8.3c-2.6-0.1-7-0.2-13.2-0.2c-8.8,0-15.4,0.1-19.8,0.2v-1.2c1.3-0.1,2.2-0.2,2.8-0.5
        c0.6-0.3,1-0.7,1.2-1.4c0.2-0.7,0.3-1.8,0.3-3.3V31c0-1.5-0.1-2.6-0.3-3.3c-0.2-0.7-0.6-1.2-1.2-1.4c-0.6-0.3-1.5-0.4-2.8-0.5v-1.2
        c4.4,0.1,11,0.2,19.8,0.2c5.6,0,9.6-0.1,12-0.2c-0.3,3-0.4,5.6-0.4,7.7c0,1.6,0.1,2.9,0.2,3.7h-1.4c-0.8-3.6-2.1-6.1-3.8-7.7
        s-3.9-2.3-6.6-2.3H243c-0.8,0-1.4,0.1-1.8,0.2c-0.4,0.2-0.8,0.5-1,0.9c-0.2,0.4-0.3,1.1-0.3,2v13h1.4c1.3,0,2.5-0.3,3.4-1
        c0.9-0.7,1.7-1.6,2.2-2.6s0.9-2.1,1.1-3.1h1.4c-0.1,1.5-0.2,3-0.2,4.6l0,2.7c0,2,0.1,4.4,0.4,7.3h-1.4c-0.3-1.9-1-3.5-2.2-4.8
        c-1.2-1.3-2.8-1.9-4.7-1.9H240v13.2c0,0.9,0.1,1.6,0.3,2c0.2,0.5,0.5,0.8,1,0.9c0.4,0.2,1,0.2,1.8,0.2h1.4c2.8,0,5.1-0.9,7-2.6
        c1.9-1.7,3.2-4.6,4-8.6h1.4C256.7,49.6,256.6,51,256.6,52.8z"/>
    <path fill="#222222" d="M326.4,20.3c-0.6,0.3-1,0.7-1.2,1.4s-0.3,1.8-0.3,3.3v29.8c0,1.5,0.1,2.6,0.3,3.3c0.2,0.7,0.6,1.2,1.2,1.4
        c0.6,0.3,1.5,0.4,2.8,0.5v1.2c-2.5-0.1-6-0.2-10.6-0.2c-4.8,0-8.4,0.1-10.7,0.2v-1.2c1.4-0.1,2.5-0.2,3.1-0.5
        c0.7-0.3,1.1-0.7,1.3-1.4c0.2-0.7,0.4-1.8,0.4-3.3V24l-14.5,37h-1l-16.9-38.5v26.8c0,2.9,0.1,5.1,0.4,6.4s0.8,2.2,1.6,2.9
        s2.2,1.1,4.1,1.3v1.2c-1.6-0.1-3.8-0.2-6.7-0.2c-2.1,0-3.8,0.1-5,0.2v-1.2c1.3-0.3,2.2-0.7,2.8-1.3s1-1.5,1.2-2.7s0.3-3,0.3-5.4V25
        c0-1.5-0.1-2.6-0.3-3.3c-0.2-0.7-0.6-1.2-1.2-1.4c-0.6-0.3-1.5-0.4-2.8-0.5v-1.2c1.2,0.1,2.9,0.2,5,0.2c4.8,0,9-0.1,12.4-0.2
        l11.3,25.5l9.8-25.3h5.2c4.6,0,8.2-0.1,10.6-0.2v1.2C327.9,19.9,326.9,20,326.4,20.3z"/>
    <path fill="#222222" d="M369.6,59.9v1.2c-2.1-0.1-5-0.2-8.8-0.2c-4.8,0-8.4,0.1-10.7,0.2v-1.2c1.2-0.1,2.1-0.3,2.8-0.6c0.6-0.4,0.9-0.9,0.9-1.7
        c0-0.7-0.3-1.6-0.8-2.7l-3-6.8h-11.3c-1.3,3.1-2,5.6-2,7.4c0,1.6,0.5,2.7,1.5,3.4c1,0.6,2.3,1,4.1,1v1.2c-3-0.1-5.6-0.2-7.9-0.2
        c-1.9,0-3.4,0.1-4.6,0.2v-1.2c0.9-0.2,1.8-0.8,2.7-1.8c0.8-1,1.8-2.8,2.9-5.2l12.3-28.2c0.6,0.1,1.3,0.1,2,0.1c0.8,0,1.4,0,2-0.1
        L366,56.1C367.2,58.6,368.4,59.8,369.6,59.9z M344.4,35l-5.1,11.8h10.2L344.4,35z"/>
    <path fill="#222222" d="M408,61.1c-1.4,0.6-3.1,0.8-5.1,0.8c-2.6,0-4.6-0.5-6-1.4s-2.3-2.2-2.7-3.7l-1.7-6.8c-0.3-1.5-0.6-2.7-1-3.5
        s-1-1.3-1.6-1.6c-0.6-0.3-1.4-0.4-2.4-0.4h-1v10.2c0,1.5,0.1,2.6,0.3,3.3c0.2,0.7,0.6,1.2,1.2,1.4c0.6,0.3,1.5,0.4,2.8,0.5v1.2
        c-2.6-0.1-6.3-0.2-11.2-0.2c-4,0-6.9,0.1-8.9,0.2v-1.2c1.3-0.1,2.2-0.2,2.8-0.5c0.6-0.3,1-0.7,1.2-1.4c0.2-0.7,0.3-1.8,0.3-3.3V31
        c0-1.5-0.1-2.6-0.3-3.3c-0.2-0.7-0.6-1.1-1.2-1.4c-0.6-0.2-1.5-0.4-2.8-0.5v-1.2c1.9,0.1,4.8,0.2,8.5,0.2c1.8,0,3.7,0,5.8-0.1
        c2.1,0,3.6-0.1,4.4-0.1c11.6,0,17.5,3.1,17.5,9.2c0,2.6-1.1,4.8-3.4,6.7c-2.3,1.9-6.2,3-11.6,3.5c0.5,0,1,0.1,1.6,0.2
        c3.3,0.3,6,1,7.9,1.9s3.2,2.4,3.7,4.5l1.3,5.3c0.2,1,0.5,1.7,0.9,2.1c0.4,0.4,0.9,0.6,1.6,0.6c0.7,0,1.4-0.3,2.1-0.8l0.8,0.8
        C410.6,59.7,409.4,60.5,408,61.1z M393.4,41c1-1.5,1.4-3.7,1.4-6.5c0-2.9-0.4-5.1-1.3-6.6c-0.9-1.5-2.4-2.2-4.5-2.2
        c-0.8,0-1.3,0.1-1.7,0.4c-0.4,0.3-0.6,0.8-0.7,1.5c-0.1,0.7-0.2,1.8-0.2,3.2v12.4h1.6C390.7,43.3,392.4,42.6,393.4,41z"/>
    <path fill="#222222" d="M429.5,26.3c-0.6,0.3-1,0.7-1.2,1.4s-0.3,1.8-0.3,3.3v23.8c0,1.5,0.1,2.6,0.3,3.3c0.2,0.7,0.6,1.2,1.2,1.4
        c0.6,0.3,1.5,0.4,2.8,0.5v1.2c-2.2-0.1-5.4-0.2-9.7-0.2c-4.8,0-8.2,0.1-10.4,0.2v-1.2c1.3-0.1,2.2-0.2,2.8-0.5
        c0.6-0.3,1-0.7,1.2-1.4c0.2-0.7,0.3-1.8,0.3-3.3V31c0-1.5-0.1-2.6-0.3-3.3c-0.2-0.7-0.6-1.2-1.2-1.4c-0.6-0.3-1.5-0.4-2.8-0.5v-1.2
        c2.2,0.1,5.6,0.2,10.4,0.2c4.3,0,7.5-0.1,9.7-0.2v1.2C431,25.9,430.1,26,429.5,26.3z"/>
    <path fill="#222222" d="M468.3,52.8c0,2.2,0.1,5,0.4,8.3c-2.6-0.1-7-0.2-13.2-0.2c-8.8,0-15.4,0.1-19.8,0.2v-1.2c1.3-0.1,2.2-0.2,2.8-0.5
        c0.6-0.3,1-0.7,1.2-1.4c0.2-0.7,0.3-1.8,0.3-3.3V31c0-1.5-0.1-2.6-0.3-3.3c-0.2-0.7-0.6-1.2-1.2-1.4c-0.6-0.3-1.5-0.4-2.8-0.5v-1.2
        c4.4,0.1,11,0.2,19.8,0.2c5.6,0,9.6-0.1,12-0.2c-0.3,3-0.4,5.6-0.4,7.7c0,1.6,0.1,2.9,0.2,3.7h-1.4c-0.8-3.6-2.1-6.1-3.8-7.7
        s-3.9-2.3-6.6-2.3h-0.8c-0.8,0-1.4,0.1-1.8,0.2c-0.4,0.2-0.8,0.5-1,0.9c-0.2,0.4-0.3,1.1-0.3,2v13h1.4c1.3,0,2.5-0.3,3.4-1
        c0.9-0.7,1.7-1.6,2.2-2.6s0.9-2.1,1.1-3.1h1.4c-0.1,1.5-0.2,3-0.2,4.6l0,2.7c0,2,0.1,4.4,0.4,7.3H460c-0.3-1.9-1-3.5-2.2-4.8
        c-1.2-1.3-2.8-1.9-4.7-1.9h-1.4v13.2c0,0.9,0.1,1.6,0.3,2c0.2,0.5,0.5,0.8,1,0.9c0.4,0.2,1,0.2,1.8,0.2h1.4c2.8,0,5.1-0.9,7-2.6
        c1.9-1.7,3.2-4.6,4-8.6h1.4C468.4,49.6,468.3,51,468.3,52.8z"/>
</g>
<g>
    <path fill="#222222" d="M16.8,0.5c-0.2,0.1-0.3,0.2-0.4,0.4c-0.1,0.2-0.1,0.6-0.1,1v9.4c0,0.5,0,0.8,0.1,1c0.1,0.2,0.2,0.4,0.4,0.4
        C17,13,17.3,13,17.7,13v0.4c-0.8,0-1.9-0.1-3.4-0.1c-1.5,0-2.6,0-3.4,0.1V13c0.5,0,0.8-0.1,1-0.1c0.2-0.1,0.3-0.2,0.4-0.4
        c0.1-0.2,0.1-0.6,0.1-1V1.7L7.9,13.4H7.6L2.3,1.2v8.5c0,0.9,0,1.6,0.1,2c0.1,0.4,0.2,0.7,0.5,0.9S3.6,13,4.2,13v0.4
        c-0.5,0-1.2-0.1-2.1-0.1c-0.7,0-1.2,0-1.6,0.1V13c0.4-0.1,0.7-0.2,0.9-0.4c0.2-0.2,0.3-0.5,0.4-0.8s0.1-0.9,0.1-1.7V2
        c0-0.5,0-0.8-0.1-1C1.7,0.8,1.6,0.6,1.4,0.5C1.2,0.4,0.9,0.4,0.5,0.4V0c0.4,0,0.9,0.1,1.6,0.1C3.6,0.1,4.9,0,6,0l3.6,8.1l3.1-8h1.6
        c1.5,0,2.6,0,3.4-0.1v0.4C17.3,0.4,17,0.4,16.8,0.5z"/>
    <path fill="#222222" d="M20.3,11.1c0.3,0.7,0.8,1.2,1.4,1.6s1.3,0.5,2.1,0.5c0.5,0,1-0.1,1.4-0.4c0.4-0.2,0.6-0.6,0.6-1.1c0-0.3-0.1-0.6-0.2-0.8
        c-0.2-0.3-0.4-0.5-0.7-0.8c-0.3-0.3-0.8-0.6-1.4-0.9c-0.9-0.5-1.6-1-2.1-1.4c-0.6-0.4-1-0.9-1.4-1.4s-0.5-1.1-0.5-1.6
        c0-0.7,0.2-1.3,0.6-1.7c0.4-0.5,1-0.8,1.7-1.1c0.7-0.2,1.6-0.4,2.5-0.4c1.1,0,2,0.2,2.9,0.7c0.2,0.1,0.3,0.2,0.4,0.2
        c0.1,0,0.2,0.1,0.2,0.1c0.1,0,0.2-0.1,0.3-0.2C28,2.3,28,2,28.1,1.8h0.4C28.5,2.6,28.4,4,28.4,6H28c-0.1-0.9-0.3-1.6-0.7-2.2
        s-0.8-1-1.3-1.3c-0.5-0.3-1.1-0.4-1.7-0.4c-0.6,0-1.1,0.1-1.4,0.3c-0.4,0.2-0.5,0.5-0.5,0.9c0,0.3,0.1,0.6,0.4,0.9
        c0.2,0.3,0.5,0.6,0.9,0.8s1,0.7,1.8,1.2c0.7,0.4,1.4,0.8,1.8,1.2c0.5,0.4,0.9,0.8,1.2,1.3S29,9.8,29,10.5c0,0.7-0.2,1.3-0.7,1.8
        c-0.4,0.5-1,0.8-1.8,1.1s-1.7,0.4-2.7,0.4c-0.4,0-0.8,0-1.2-0.1s-0.7-0.2-0.9-0.2c-0.2-0.1-0.6-0.2-1.1-0.4
        c-0.3-0.1-0.6-0.2-0.7-0.2c-0.1,0-0.2,0.1-0.3,0.2c-0.1,0.1-0.1,0.3-0.2,0.6h-0.4c0-0.8,0.1-2.4,0.1-4.9h0.4
        C19.7,9.6,19.9,10.4,20.3,11.1z"/>
    <path fill="#222222" d="M33.8,10.8c0.3,0.3,0.5,0.7,0.5,1.2c0,0.5-0.2,0.9-0.5,1.2c-0.3,0.3-0.8,0.4-1.4,0.4c-0.6,0-1.1-0.1-1.4-0.4
        s-0.5-0.7-0.5-1.2c0-0.5,0.2-0.9,0.5-1.2c0.3-0.3,0.8-0.4,1.4-0.4C33,10.4,33.5,10.6,33.8,10.8z"/>
</g>
</svg>
